<svg width="26" height="26" viewBox="0 0 26 26" fill="none" xmlns="http://www.w3.org/2000/svg">
<path d="M23.0967 10.3458L21.0492 9.66333L22.0134 7.73499C22.1111 7.53315 22.1438 7.30595 22.1069 7.08475C22.07 6.86354 21.9654 6.65922 21.8075 6.49999L19.5 4.19249C19.3399 4.03225 19.1337 3.92622 18.9102 3.8893C18.6867 3.85237 18.4573 3.88643 18.2542 3.98666L16.3259 4.95083L15.6434 2.90333C15.5713 2.6899 15.4345 2.50425 15.2519 2.37222C15.0694 2.24019 14.8503 2.16833 14.625 2.16666H11.375C11.1479 2.16607 10.9264 2.23688 10.7417 2.36907C10.557 2.50126 10.4185 2.68815 10.3459 2.90333L9.66336 4.95083L7.73502 3.98666C7.53318 3.88892 7.30599 3.85623 7.08478 3.8931C6.86357 3.92997 6.65925 4.03458 6.50002 4.19249L4.19252 6.49999C4.03228 6.66007 3.92625 6.86635 3.88933 7.08982C3.85241 7.31329 3.88646 7.54271 3.98669 7.74583L4.95086 9.67416L2.90336 10.3567C2.68993 10.4287 2.50429 10.5656 2.37225 10.7481C2.24022 10.9306 2.16836 11.1497 2.16669 11.375V14.625C2.1661 14.8521 2.23691 15.0737 2.3691 15.2583C2.50129 15.443 2.68818 15.5815 2.90336 15.6542L4.95086 16.3367L3.98669 18.265C3.88895 18.4668 3.85626 18.694 3.89313 18.9152C3.93 19.1364 4.03461 19.3408 4.19252 19.5L6.50002 21.8075C6.6601 21.9677 6.86638 22.0738 7.08985 22.1107C7.31332 22.1476 7.54274 22.1136 7.74586 22.0133L9.67419 21.0492L10.3567 23.0967C10.4294 23.3118 10.5678 23.4987 10.7525 23.6309C10.9372 23.7631 11.1587 23.8339 11.3859 23.8333H14.6359C14.863 23.8339 15.0845 23.7631 15.2692 23.6309C15.4539 23.4987 15.5923 23.3118 15.665 23.0967L16.3475 21.0492L18.2759 22.0133C18.4764 22.1086 18.7014 22.1399 18.9203 22.1031C19.1393 22.0663 19.3417 21.9631 19.5 21.8075L21.8075 19.5C21.9678 19.3399 22.0738 19.1336 22.1107 18.9102C22.1476 18.6867 22.1136 18.4573 22.0134 18.2542L21.0492 16.3258L23.0967 15.6433C23.3101 15.5712 23.4958 15.4344 23.6278 15.2519C23.7598 15.0694 23.8317 14.8503 23.8334 14.625V11.375C23.8339 11.1479 23.7631 10.9263 23.6309 10.7416C23.4988 10.557 23.3119 10.4185 23.0967 10.3458ZM21.6667 13.845L20.3667 14.2783C20.0678 14.3753 19.7935 14.5361 19.5629 14.7497C19.3323 14.9632 19.151 15.2244 19.0314 15.515C18.9119 15.8057 18.857 16.1189 18.8706 16.4328C18.8841 16.7468 18.9658 17.0541 19.11 17.3333L19.7275 18.5683L18.5359 19.76L17.3334 19.11C17.0555 18.9716 16.7512 18.8945 16.441 18.8839C16.1308 18.8733 15.822 18.9295 15.5354 19.0487C15.2488 19.1678 14.9911 19.3472 14.7799 19.5746C14.5686 19.802 14.4086 20.0721 14.3109 20.3667L13.8775 21.6667H12.155L11.7217 20.3667C11.6247 20.0677 11.4639 19.7935 11.2503 19.5629C11.0368 19.3323 10.7756 19.151 10.485 19.0314C10.1943 18.9119 9.88116 18.857 9.56718 18.8705C9.2532 18.8841 8.94594 18.9658 8.66669 19.11L7.43169 19.7275L6.24002 18.5358L6.89002 17.3333C7.03421 17.0541 7.11592 16.7468 7.12949 16.4328C7.14306 16.1189 7.08816 15.8057 6.96861 15.515C6.84905 15.2244 6.6677 14.9632 6.43713 14.7497C6.20656 14.5361 5.9323 14.3753 5.63336 14.2783L4.33336 13.845V12.155L5.63336 11.7217C5.9323 11.6247 6.20656 11.4639 6.43713 11.2503C6.6677 11.0367 6.84905 10.7756 6.96861 10.4849C7.08816 10.1943 7.14306 9.88113 7.12949 9.56715C7.11592 9.25317 7.03421 8.9459 6.89002 8.66666L6.27252 7.46416L7.46419 6.27249L8.66669 6.88999C8.94594 7.03418 9.2532 7.11589 9.56718 7.12946C9.88116 7.14303 10.1943 7.08813 10.485 6.96858C10.7756 6.84902 11.0368 6.66767 11.2503 6.4371C11.4639 6.20653 11.6247 5.93227 11.7217 5.63333L12.155 4.33333H13.845L14.2784 5.63333C14.3753 5.93227 14.5362 6.20653 14.7497 6.4371C14.9633 6.66767 15.2244 6.84902 15.5151 6.96858C15.8057 7.08813 16.1189 7.14303 16.4329 7.12946C16.7468 7.11589 17.0541 7.03418 17.3334 6.88999L18.5684 6.27249L19.76 7.46416L19.11 8.66666C18.9716 8.94447 18.8945 9.24879 18.8839 9.55899C18.8733 9.86919 18.9295 10.178 19.0487 10.4646C19.1679 10.7512 19.3472 11.0089 19.5746 11.2202C19.802 11.4314 20.0721 11.5914 20.3667 11.6892L21.6667 12.1225V13.845ZM13 8.66666C12.143 8.66666 11.3052 8.92081 10.5926 9.39696C9.87994 9.87311 9.32452 10.5499 8.99655 11.3417C8.66857 12.1335 8.58275 13.0048 8.74995 13.8454C8.91716 14.686 9.32987 15.4581 9.93589 16.0641C10.5419 16.6701 11.314 17.0829 12.1546 17.2501C12.9952 17.4173 13.8665 17.3314 14.6583 17.0035C15.4501 16.6755 16.1269 16.1201 16.6031 15.4075C17.0792 14.6948 17.3334 13.857 17.3334 13C17.3334 11.8507 16.8768 10.7485 16.0642 9.93586C15.2515 9.12321 14.1493 8.66666 13 8.66666ZM13 15.1667C12.5715 15.1667 12.1526 15.0396 11.7963 14.8015C11.44 14.5634 11.1623 14.225 10.9983 13.8291C10.8343 13.4332 10.7914 12.9976 10.875 12.5773C10.9586 12.157 11.1649 11.7709 11.468 11.4679C11.771 11.1649 12.157 10.9586 12.5773 10.875C12.9976 10.7914 13.4333 10.8343 13.8292 10.9983C14.2251 11.1622 14.5635 11.44 14.8015 11.7963C15.0396 12.1526 15.1667 12.5715 15.1667 13C15.1667 13.5746 14.9384 14.1257 14.5321 14.5321C14.1258 14.9384 13.5747 15.1667 13 15.1667Z" fill="#CCCCCC"/>
</svg>
