<svg width="100" height="100" viewBox="0 0 100 100" fill="none" xmlns="http://www.w3.org/2000/svg">
<path d="M84.0001 20.8334C79.5833 16.4051 73.7285 13.7023 67.4932 13.2132C61.2579 12.7242 55.0533 14.4811 50.0001 18.1667C44.6987 14.2235 38.1001 12.4355 31.5331 13.1627C24.9661 13.8899 18.9186 17.0783 14.6083 22.0858C10.298 27.0933 8.04518 33.548 8.30343 40.1501C8.56167 46.7522 11.3118 53.0112 16.0001 57.6667L41.8751 83.5834C44.0418 85.7158 46.96 86.9109 50.0001 86.9109C53.0401 86.9109 55.9583 85.7158 58.1251 83.5834L84.0001 57.6667C88.865 52.772 91.5956 46.1512 91.5956 39.25C91.5956 32.3489 88.865 25.7281 84.0001 20.8334V20.8334ZM78.1251 51.9167L52.2501 77.7917C51.9556 78.089 51.6052 78.325 51.219 78.4861C50.8328 78.6472 50.4185 78.7301 50.0001 78.7301C49.5817 78.7301 49.1674 78.6472 48.7812 78.4861C48.395 78.325 48.0445 78.089 47.7501 77.7917L21.8751 51.7917C18.6074 48.4515 16.7776 43.9645 16.7776 39.2917C16.7776 34.6189 18.6074 30.1319 21.8751 26.7917C25.2049 23.5042 29.6958 21.6607 34.3751 21.6607C39.0544 21.6607 43.5453 23.5042 46.8751 26.7917C47.2624 27.1822 47.7233 27.4922 48.231 27.7038C48.7388 27.9153 49.2834 28.0242 49.8334 28.0242C50.3835 28.0242 50.9281 27.9153 51.4358 27.7038C51.9436 27.4922 52.4044 27.1822 52.7918 26.7917C56.1216 23.5042 60.6125 21.6607 65.2918 21.6607C69.971 21.6607 74.4619 23.5042 77.7918 26.7917C81.1043 30.0882 82.9942 34.5508 83.0565 39.2237C83.1188 43.8966 81.3486 48.4081 78.1251 51.7917V51.9167Z" fill="#FF5B5B"/>
</svg>
